<svg width="256" height="256" viewBox="0 0 256 256" fill="none" xmlns="http://www.w3.org/2000/svg">
<rect width="256" height="256" rx="30" fill="#F7F3F3"/>
<path fill-rule="evenodd" clip-rule="evenodd" d="M195 188.055L161.439 220H61V171.188H74.6746V84.8118H61V36H161.439L195 68.456V116.243L184.559 125.187L195 135.664V188.055ZM192.265 186.779V136.69L180.581 125.191L192.265 114.968V69.4807L160.442 38.8166H63.7327V82.0047H77.1585V174.003H63.7327V217.191H160.442L192.265 186.779ZM183.811 182.947L156.963 208.501H72.1869V182.689H85.6109V73.3126H72.1869V47.5012H156.963L183.811 73.3126V110.879L167.651 125.189L183.811 140.522V182.947ZM156.963 106.538V81.4914L149.255 73.3144H111.716V114.457H149.255L156.963 106.538ZM156.963 174.512V144.867L149.255 136.69H111.716V182.689H149.255L156.963 174.512ZM148.509 102.956L145.775 105.769H120.169V82.0028H145.775L148.509 85.0675V102.956ZM148.509 170.936L145.775 174.001H120.169V145.379H145.775L148.509 148.447V170.936ZM146.021 101.935V86.0904L144.779 84.8137H122.901V103.213H144.779L146.021 101.935ZM146.021 169.911V149.468L144.779 148.188H122.901V171.188H144.779L146.021 169.911Z" fill="#821C1C"/>
</svg>
